<?xml version="1.0" encoding="UTF-8" standalone="no"?>
<!-- Created with Inkscape (http://www.inkscape.org/) -->
<svg id="svg4320" xmlns:rdf="http://www.w3.org/1999/02/22-rdf-syntax-ns#" xmlns="http://www.w3.org/2000/svg" xml:space="preserve" height="184.08" viewBox="0 0 449.88751 184.08183" width="449.89" version="1.1" xmlns:cc="http://creativecommons.org/ns#" xmlns:dc="http://purl.org/dc/elements/1.1/" fill="#000000"><metadata id="metadata4326"><rdf:RDF><cc:Work rdf:about=""><dc:format>image/svg+xml</dc:format><dc:type rdf:resource="http://purl.org/dc/dcmitype/StillImage"/><dc:title/></cc:Work></rdf:RDF></metadata><defs id="defs4324"><clipPath id="clipPath4336" clipPathUnits="userSpaceOnUse"><path id="path4338" d="m0 792h612v-792h-612v792z"/></clipPath><clipPath id="clipPath4354" clipPathUnits="userSpaceOnUse"><path id="path4356" d="m108.04 370.28h359.91v147.38h-359.91v-147.38z"/></clipPath><clipPath id="clipPath4426" clipPathUnits="userSpaceOnUse"><path id="path4428" d="m108.04 370.28h359.91v147.38h-359.91v-147.38z"/></clipPath></defs><g id="g4328" transform="matrix(1.25 0 0 -1.25 -135.06 646.94)"><g id="g4330"><g id="g4332"/></g><path id="path4348" d="m136.85 467.46h-24.68v15.22h24.68v-15.22zm1.903 19.004h-28.326l-2.378-2.304v-18.391l2.47-1.996h28.273l2.486 2.207v18.182l-2.525 2.302z"/><g id="g4350"><g id="g4352" clip-path="url(#clipPath4354)"><g id="g4358" transform="translate(333.34 426.35)"><path id="path4360" d="m0 0c-10.359 0-18.798 7.97-19.151 17.932-0.008 0.217-0.012 0.433-0.012 0.651 0 10.266 8.58 18.587 19.163 18.587 10.584 0 19.163-8.321 19.163-18.587 0-0.214-0.004-0.428-0.011-0.641-0.349-9.967-8.79-17.942-19.152-17.942m0 41.113c-12.815 0-23.201-10.088-23.201-22.53 0-12.441 10.386-22.528 23.201-22.528 12.814 0 23.201 10.087 23.201 22.528 0 12.442-10.387 22.53-23.201 22.53"/></g><g id="g4362" transform="translate(333.34 406.64)"><path id="path4364" d="m0 0c-21.804 0-39.48 17.141-39.48 38.286s17.676 38.287 39.48 38.287c21.805 0 39.48-17.142 39.48-38.287s-17.675-38.286-39.48-38.286m0 80.515c-24.019 0-43.49-18.906-43.49-42.229 0-0.208 0.002-0.414 0.005-0.621 0.343-23.036 19.68-41.608 43.485-41.608s43.142 18.572 43.484 41.608c0.003 0.207 0.005 0.413 0.005 0.621 0 23.323-19.471 42.229-43.489 42.229"/></g><g id="g4366" transform="translate(463.74 406.97)"><path id="path4368" d="m0 0h-6.82l-28.458 31.788v9.512h19.659l0.062 34.554h15.566l-0.009-75.854zm1.503 79.579h-18.232l-2.695-3.241v-31.55h-17.123c-2.219 0-2.219-1.143-2.219-2.061v-12.208l30.44-34.403h9.829l2.537 2.378v78.161l-2.537 2.924z"/></g><g id="g4370" transform="translate(419.18 441.14)"><path id="path4372" d="m0 0h-19.58v-33.928h-15.659l0.04 75.545h6.82l28.379-32.104v-9.513zm-26.851 45.249h-9.829l-2.559-2.443v-78.161l2.537-2.695h18.232l2.695 3.012v31.55h17.123c2.219 0 2.219 1.143 2.219 2.061v12.208l-30.418 34.468z"/></g><g id="g4374" transform="translate(283.23 407.05)"><path id="path4376" d="m0 0h-18.814l-31.767 32.432v13.167l51.874 0.015c-3.264-9.59-11.658-15.548-21.907-15.548h-9.245s26.166-26.348 29.859-30.066m-20.011 26.238c13.775 0.282 24.536 9.754 26.169 23.035h-58.054l-2.642-2.609v-14.797c0-0.48 0-1.026 0.408-1.477 0.059-0.062 31.544-32.482 33.361-34.354h26.318v4.123l-26.194 26.065 0.634 0.014z"/></g><g id="g4378" transform="translate(220.19 407.05)"><path id="path4380" d="m0 0-15.641-0.069v45.623l15.674-0.018-0.033-45.536zm1.293 49.306h-18.702l-2.44-2.643v-48.075l2.705-2.576h18.567l2.589 3.036v47.616l-2.719 2.642z"/></g><g id="g4382" transform="translate(172.5 467.37)"><path id="path4384" d="m0 0c-3.668 0-6.767-3.094-6.767-6.756l-0.029-53.562-15.641-0.069-0.008 54.86c0.119 11.868 9.233 20.801 21.254 20.801l91.237-0.008c9.951 0 18.761-6.127 21.924-15.245l-111.97-0.021zm90.084 19.132-91.224 0.005c-14.597-0.026-25.326-10.506-25.511-24.914l0.006-55.953 2.85-2.431h18.568l2.444 2.891-0.003 54.412c0 1.7 1.397 3.032 3.179 3.032l116.43-0.014c-1.9 13.096-13.4 22.972-26.736 22.972"/></g><g id="g4386" transform="translate(269.68 505.25)"><path id="path4388" d="m0 0c0.073 0.919 1.75 1.442 4.623 1.617-0.044-0.79-0.075-1.541-0.093-2.149-0.024-0.824-0.051-1.777-0.045-2.697-2.698 0.952-4.551 2.4-4.485 3.229m15.253 7.351c-5.268 3.736-11.32 4.82-15.094 4.932-4.164 0.123-4.522-0.689-4.522-1.028 0-0.429 0.613-0.601 0.823-0.691 0.261-0.112 0.971-0.243 0.971-0.018 0 0.374-0.878 0.56-0.859 0.672s-0.089 0.413 3.027 0.224c10.162-0.616 17.773-6.293 17.733-10.714-0.024-2.531-2.604-5.01-7.847-4.889-1.09 0.024-2.152 0.171-3.147 0.397 0.042 1.218 0.032 2.677 0.06 4.203 0.008 0.435 0.009 0.846 0.006 1.241 0.028 0 0.055 0.002 0.083 0.002 4.007 0.041 5.114-0.31 5.296-0.351 0.182-0.043 0.11-0.112 0.056-0.154-0.056-0.042-0.812-0.603-0.827-0.701-0.014-0.098-0.07-0.379 0.618-0.294 0.685 0.084 1.722 0.911 1.694 1.556-0.027 0.618-2.214 1.935-6.982 1.838-0.143 2.346-0.495 3.588-0.765 3.588-0.391 0-0.655-1.723-0.823-3.673-4.366-0.41-5.538-2.14-5.651-2.973-0.108-2.366 2.517-4.076 5.422-5.073 0.081-1.378 0.302-2.445 0.827-2.479 0.546-0.035 0.793 0.733 0.91 1.972 1.304-0.318 2.569-0.492 3.574-0.515 4.895-0.112 9.677 1.683 9.753 5.941 0.053 3.024-1.663 5.093-4.336 6.987"/></g><g id="g4390" transform="translate(295.02 512.55)"><path id="path4392" d="m0 0c-0.975-0.488-2.481-0.661-3.434-0.208 0.565 0.508 1.236 1.048 1.866 1.459 1.148 0.75 2.955 1.61 3.361 1.046 0.336-0.467-0.298-1.55-1.793-2.297m-3.289 2.559c0.79 0.472 1.629 0.505 2.324 0.452-0.205-0.083-0.411-0.174-0.613-0.274-1.233-0.61-2.115-1.439-2.667-2.078-0.24 0.714 0.186 1.44 0.956 1.9m5.98 0.336c-0.319 0.469-0.941 0.643-1.695 0.599 0.006 0.249-0.159 0.512-0.529 0.653-1.176 0.448-2.801 0.541-4.466-0.449-1.368-0.814-2.24-2.559-1.525-3.765 0.113-0.19 0.253-0.351 0.406-0.498-0.449-0.823-0.344-1.23-0.262-1.285 0.261-0.224 0.687 0.355 0.895 0.598 0.046 0.051 0.096 0.107 0.148 0.164 1.479-0.66 3.643-0.3 4.878 0.359 1.58 0.842 2.953 2.447 2.15 3.624"/></g><g id="g4394" transform="translate(291.81 509.35)"><path id="path4396" d="m0 0c0.376 0 0.935-0.86 0.785-4.222-0.15-3.363-0.409-4.819-1.121-4.819-0.711 0-0.971 1.867-0.859 3.773 0.113 1.905 0.597 5.231 1.195 5.268"/></g><g id="g4398" transform="translate(303 503.18)"><path id="path4400" d="m0 0c0 1.689-2.524 2.233-4.841 2.705-1.825 0.372-2.539 0.637-2.552 0.984-0.015 0.348 1.262 0.721 4.092 0.666 2.829-0.055 3.204 0.597 3.189 0.749-0.027 0.277-0.554 0.819-3.717 0.763-3.162-0.056-5.284-1.249-5.243-2.372s1.9-1.47 3.761-1.9c1.857-0.43 3.648-0.776 3.619-1.608-0.027-0.833-1.735-1.443-3.384-1.443-1.652 0-2.998 0.273-3.025 0.679-0.013 0.209 0.557 0.166 0.86 0.166 0.221 0 1.553-0.04 2.053-0.026 0.5 0.012 1.472 0.041 1.443 0.526-0.028 0.486-1.192 0.763-2.442 0.777-1.248 0.013-3.204-0.291-3.189-1.317 0.013-1.027 2.385-2.081 4.688-2.081 2.413 0 4.688 1.15 4.688 2.732"/></g><g id="g4402" transform="translate(305.66 508.27)"><path id="path4404" d="m0 0c-0.338 0-0.998-0.798-1.309-3.512-0.3-2.597-0.14-3.201-0.074-3.419 0.112-0.374 0.336-0.542 0.521-0.71 0.188-0.168 0.655-0.579 0.749 0.074 0.093 0.656 0.316 4.503 0.336 4.615s0.06 0.321 0.299 0.019c0.353-0.449 2.167-3.251 2.988-4.278 0.572-0.714 0.953-1.028 1.289-1.009 0.338 0.019 1.315 0.09 1.496 4.932 0.129 3.512-1.178 4.801-1.457 5.007-0.282 0.206-0.393 0.186-0.449 0.13-0.058-0.056-0.038-0.149 0.074-0.392 0.111-0.243 0.486-1.475 0.486-3.755 0-1.644-0.205-2.615-0.335-3.119-0.067-0.26-0.151-0.43-0.394-0.169-0.353 0.382-0.98 1.328-1.718 2.411-0.879 1.289-1.998 3.213-2.502 3.175"/></g><g id="g4406" transform="translate(319.98 507.97)"><path id="path4408" d="m0 0c0.224 0.243-0.206 0.84-0.374 1.009-0.168 0.168-1.065 0.373-2.634 0.298-1.496-0.071-3.382-0.542-3.382-0.934-0.05-0.5 0.917-0.523 1.271-0.56-0.159-0.429-0.454-1.544-0.707-2.733-0.264-0.036-0.476-0.067-0.601-0.088-0.265-0.045-0.399-0.093-0.431-0.205-0.037-0.134 0.159-0.494 0.835-0.705-0.158-0.86-0.266-1.67-0.254-2.191 0.018-0.897 0.335-1.607 1.605-1.662 1.759-0.078 3.522 0.976 3.849 1.214 0.239 0.173 0.395 0.315 0.375 0.522-0.02 0.19-0.316 0.192-0.449 0.188-0.448-0.017-1.757-0.169-2.447-0.225-0.693-0.056-1.458-0.261-1.382 1.308 0.01 0.214 0.031 0.44 0.059 0.671 0.941-0.02 1.907 0.093 2.182 0.15 0.354 0.075 0.765 0.431 0.915 0.711 0.148 0.28 0.186 0.447 0.037 0.542-0.149 0.093-0.711 0.122-1.457 0.074-0.429-0.028-0.944-0.077-1.449-0.133 0.219 1.043 0.506 2.02 0.664 2.505 1.458-0.055 3.549 0 3.775 0.244"/></g><g id="g4410" transform="translate(327.1 504.83)"><path id="path4412" d="m0 0c-0.476-1.206-1.962-3.251-3.531-3.111-0.047 0.004-0.091 0.012-0.136 0.017 0.416 1.006 0.78 1.738 1.06 2.308 0.917 1.87 2.243 3.895 2.887 3.672 0.643-0.225 0.195-1.682-0.28-2.886m0.728 4.455c-1.738 0.392-4.763-4.82-5.604-6.642-0.041-0.088-0.084-0.179-0.124-0.27-0.405 0.475-0.521 1.179-0.41 2.036 0.262 2.021 1.375 4.344 1.543 4.707 0.167 0.365 0.252 0.645 0.028 0.645-0.226 0.113-0.426-0.22-0.646-0.504-0.56-0.729-1.585-2.672-1.96-4.035-0.453-1.642-0.24-3.398 0.816-4.255-0.661-1.533-1.307-3.241-1.489-4.572-0.252-1.85 0.561-2.326 0.756-2.354 0.196-0.029 0.366-0.05 0.588 0.896 0.543 2.308 1.086 4.072 1.583 5.446 3.045-0.525 4.686 2.786 5.255 4.026 0.429 0.937 1.402 4.483-0.336 4.876"/></g></g></g><g id="g4414" transform="translate(145.95 387.17)"><path id="path4416" d="m0 0h1.779v-15.192h10.466v-1.343h-12.245v16.535z"/></g><g id="g4418" transform="translate(208.2 387.17)"><path id="path4420" d="m0 0h12.899v-1.343h-11.12v-5.975h10.414v-1.343h-10.414v-6.531h11.251v-1.343h-13.03v16.535z"/></g><g id="g4422"><g id="g4424" clip-path="url(#clipPath4426)"><g id="g4430" transform="translate(283.37 370.63)"><path id="path4432" d="m0 0h-1.282l-0.236 3.01h-0.052c-1.256-2.362-3.767-3.358-6.463-3.358-5.887 0-8.817 4.099-8.817 8.615s2.93 8.615 8.817 8.615c3.925 0 7.117-1.876 7.797-5.488h-1.779c-0.235 1.899-2.459 4.145-6.018 4.145-4.945 0-7.038-3.659-7.038-7.272 0-3.612 2.093-7.271 7.038-7.271 4.134 0 6.541 2.57 6.463 6.067h-6.358v1.343h7.928v-8.406z"/></g><g id="g4434" transform="translate(332.62 377.11)"><path id="path4436" d="m0 0h7.352l-3.61 8.476-3.742-8.476zm2.825 10.051h1.989l7.326-16.535h-1.91l-2.276 5.141h-8.504l-2.25-5.141h-1.909l7.534 16.535z"/></g><g id="g4438" transform="translate(403.3 382.16)"><path id="path4440" d="m0 0c-0.628 2.548-3.009 4.006-5.73 4.006-4.945 0-7.039-3.658-7.039-7.271s2.094-7.272 7.039-7.272c3.454 0 5.651 2.363 5.991 5.304h1.779c-0.497-4.053-3.401-6.647-7.77-6.647-5.887 0-8.818 4.1-8.818 8.615s2.931 8.615 8.818 8.615c3.531 0 7.037-1.876 7.509-5.35h-1.779z"/></g><g id="g4442" transform="translate(458.8 377.44)"><path id="path4444" d="m0 0-7.353 9.726h2.12l6.149-8.383 6.122 8.383h2.12l-7.379-9.726v-6.808h-1.779v6.808z"/></g></g></g></g></svg>
